<?xml version="1.0" standalone="no"?><!DOCTYPE svg PUBLIC "-//W3C//DTD SVG 1.1//EN" "http://www.w3.org/Graphics/SVG/1.1/DTD/svg11.dtd"><svg t="1551928587379" class="icon" style="" viewBox="0 0 1145 1024" version="1.1" xmlns="http://www.w3.org/2000/svg" p-id="2045" xmlns:xlink="http://www.w3.org/1999/xlink" width="223.6328125" height="200"><defs><style type="text/css"></style></defs><path d="M951.480147 1024l-66.489473-66.541236c103.771717-119.05472 167.116593-274.641122 167.116593-445.458764 0-170.364716-63.344876-325.899355-167.116593-445.471705L951.480147 0a768.821736 768.821736 0 0 1 194.110956 512c0.452926 196.440288-73.231594 375.798812-194.110956 512" fill="#e6e6e6" p-id="2046"></path><path d="M769.533477 841.496879l-66.929458-66.502414a421.518413 421.518413 0 0 0 0-525.937167l66.489473-66.528295a512.103526 512.103526 0 0 1 119.05472 329.496878c0.452926 125.421559-44.477291 240.05055-118.601795 329.496879M491.010135 886.440035a69.957589 69.957589 0 0 1-41.319752-13.484241L210.700973 698.993555H70.086996A70.190522 70.190522 0 0 1 0 628.867737v-234.227221a70.190522 70.190522 0 0 1 70.086996-70.099937h139.268141l237.643574-194.641527v0.452926a69.517604 69.517604 0 0 1 114.09842 53.949905v631.572349a70.294048 70.294048 0 0 1-70.086996 70.578744" fill="#e6e6e6" p-id="2047"></path></svg>