<?xml version="1.0" standalone="no"?><!DOCTYPE svg PUBLIC "-//W3C//DTD SVG 1.1//EN" "http://www.w3.org/Graphics/SVG/1.1/DTD/svg11.dtd"><svg t="1546502380348" class="icon" style="" viewBox="0 0 1024 1024" version="1.1" xmlns="http://www.w3.org/2000/svg" p-id="2247" xmlns:xlink="http://www.w3.org/1999/xlink" width="200" height="200"><defs><style type="text/css"></style></defs><path d="M95.045 205.19c0 77.107 62.508 139.615 139.615 139.615s139.615-62.508 139.615-139.615S311.768 65.574 234.66 65.574 95.045 128.083 95.045 205.19z m328.74-71.293c0 38.827 31.476 70.303 70.303 70.303s70.303-31.476 70.303-70.303-31.476-70.303-70.303-70.303-70.303 31.476-70.303 70.303z m201.006 17.823c0 38.827 31.476 70.303 70.303 70.303s70.303-31.476 70.303-70.303-31.476-70.303-70.303-70.303-70.303 31.476-70.303 70.303z m164.37 90.107c0 38.827 31.476 70.303 70.303 70.303s70.303-31.476 70.303-70.303-31.476-70.303-70.303-70.303-70.303 31.476-70.303 70.303z m-340.622 56.44c-213.879 85.155-158.429 273.29-13.863 322.799 94.067 31.686 48.519 140.606 38.617 201.997C453.49 943.864 559.44 972.58 664.399 954.756c103.969-17.823 248.535-263.388 153.478-500.041-100.009-246.554-369.338-156.448-369.338-156.448z" p-id="2248" fill="#e6e6e6"></path></svg>