<?xml version="1.0" standalone="no"?><!DOCTYPE svg PUBLIC "-//W3C//DTD SVG 1.1//EN" "http://www.w3.org/Graphics/SVG/1.1/DTD/svg11.dtd"><svg t="1545727224387" class="icon" style="" viewBox="0 0 1024 1024" version="1.1" xmlns="http://www.w3.org/2000/svg" p-id="12351" xmlns:xlink="http://www.w3.org/1999/xlink" width="200" height="200"><defs><style type="text/css"></style></defs><path d="M536.88 1008l362.752-365.456c0 0 32.8-28.032 32.8-68.208L932.432 349.424l-44.16 25.376 0 121.184c0 0 2.432 41.76-49.2 89.792C791.744 632.384 478.08 948.352 478.08 948.352L536.88 1008 536.88 1008 536.88 1008zM639.312 335.632c0 0 72.208-315.008 215.76-319.504C996.96 11.696 1027.344 120.64 1023.712 189.072c-4.32 81.536-84.336 142.688-135.44 152.224 0-41.024 0.224-57.68 0.224-57.68s83.6-22.528 83.904-96.448c0.256-57.12-31.216-131.312-117.328-121.824-101.648 11.216-174.128 298.848-174.128 298.848l-15.136 15.232L639.312 335.632 639.312 335.632 639.312 335.632zM789.12 172.384l39.84 0 0 312.16c0.96 26.528-30.272 59.008-30.272 59.008L336.896 1004.192 0 661.584c0 0 410.688-411.136 456.128-456.832 32.176-32.352 52.992-32.352 52.992-32.352l240.896 0-55.12 140.224 5.904 27.168c2.32 10.624 1.44 28.848 1.44 28.848-5.616 23.376-26.544 40.736-51.504 40.736-29.28 0-54.256-25.136-54.256-54.56 0-15.04 16.624-46.112 42.048-51.264l15.584-51.328c-68.144 13.968-104.32 57.824-104.32 103.856 0 56.544 45.568 102.368 101.792 102.368 56.208 0 101.776-45.824 101.776-102.368-1.264-20.096-3.152-23.904-9.856-44.656-5.488-18.272 27.344-97.264 27.344-97.264L789.12 172.384 789.12 172.384z" p-id="12352" fill="#e6e6e6"></path></svg>