<?xml version="1.0" standalone="no"?><!DOCTYPE svg PUBLIC "-//W3C//DTD SVG 1.1//EN" "http://www.w3.org/Graphics/SVG/1.1/DTD/svg11.dtd"><svg t="1545726934804" class="icon" style="" viewBox="0 0 1024 1024" version="1.1" xmlns="http://www.w3.org/2000/svg" p-id="7423" xmlns:xlink="http://www.w3.org/1999/xlink" width="200" height="200"><defs><style type="text/css"></style></defs><path d="M784.417925 7.309476 784.417925 1024 1023.979022 1024 1023.979022 153.199171Z" p-id="7424" fill="#e6e6e6"></path><path d="M460.892507 757.922992 245.420037 783.690866 245.420037 590.871325l-26.88737 10.330276L218.532667 482.760049 22.910291 563.299363l0 113.463168-18.733667 7.281847 0 339.955622 752.85558 0L757.032204 4.257977l-296.139697 176.264493L460.892507 757.922992zM40.897967 599.957261l65.976644-28.444842 0 74.006528-65.976644 27.383674L40.897967 599.957261zM45.753555 720.081129l65.973574-28.568662 0 74.129324-65.973574 27.321252L45.753555 720.081129zM113.718483 873.253694l-65.973574 27.448142 0-72.945359 65.973574-28.506241L113.718483 873.253694zM123.179972 564.29504l65.975621-28.505217 0 74.063833-65.975621 27.38572L123.179972 564.29504zM128.034537 684.294065l66.037019-28.444842 0 74.065879-66.037019 27.386744L128.034537 684.294065zM201.849706 838.028425l-66.096371 27.321252 0-72.947406 66.096371-28.441772L201.849706 838.028425zM615.748411 144.17361l105.931634-63.920822 0 83.526345-105.931634 61.867046L615.748411 144.17361zM615.748411 277.740652l105.931634-63.919798 0 83.526345-105.931634 61.866023L615.748411 277.740652zM615.748411 411.308717l105.931634-63.983243 0 83.58672-105.931634 61.868069L615.748411 411.308717zM615.748411 544.812313l105.931634-63.920822 0 83.58979-105.931634 61.803601L615.748411 544.812313zM615.748411 678.4428l105.931634-63.981197 0 83.587744-105.931634 61.741179L615.748411 678.4428zM495.125169 216.994126l91.245144-55.082526 0 80.850399-91.245144 53.277414L495.125169 216.994126zM495.125169 350.563214l91.245144-55.084573 0 80.849376-91.245144 53.217039L495.125169 350.563214zM495.125169 484.065787l91.245144-55.081503 0 80.849376-91.245144 53.278437L495.125169 484.065787zM495.125169 617.635899l91.245144-55.022151 0 80.785931-91.245144 53.278437L495.125169 617.635899zM495.125169 751.20294l91.245144-55.023174 0 80.791048-91.245144 53.274344L495.125169 751.20294z" p-id="7425" fill="#e6e6e6"></path></svg>