<?xml version="1.0" standalone="no"?><!DOCTYPE svg PUBLIC "-//W3C//DTD SVG 1.1//EN" "http://www.w3.org/Graphics/SVG/1.1/DTD/svg11.dtd"><svg t="1548055681472" class="icon" style="" viewBox="0 0 1024 1024" version="1.1" xmlns="http://www.w3.org/2000/svg" p-id="3843" xmlns:xlink="http://www.w3.org/1999/xlink" width="200" height="200"><defs><style type="text/css"></style></defs><path d="M523.2 980.4c62.2 0 115.8-36.5 140.9-89.2H382.3c25 52.6 78.6 89.2 140.9 89.2zM902.3 757.3h-0.4c-38.3-10.8-66.5-45.6-66.5-87.3 0-0.7 0.2-1.3 0.2-1.9h-0.2V422.8h-0.6c-5.3-154.5-118.7-281.2-267.1-307.1v-5.1c0-30.8-25-55.8-55.8-55.8-30.8 0-55.8 25-55.8 55.8v5.1C307.8 141.6 194.3 268.3 189 422.8h-0.6v245.3h-0.3c0.1 1.7 0.5 3.3 0.5 5.1 0 38.2-22.9 71-55.7 85.6-19.3 4.9-33.7 22.3-33.7 43.1 0 24.6 20 44.6 44.6 44.6h758.3c24.6 0 44.6-20 44.6-44.6 0.2-24.6-19.8-44.6-44.4-44.6z" p-id="3844" fill="#e6e6e6"></path></svg>