<?xml version="1.0" standalone="no"?><!DOCTYPE svg PUBLIC "-//W3C//DTD SVG 1.1//EN" "http://www.w3.org/Graphics/SVG/1.1/DTD/svg11.dtd"><svg t="1555466229464" class="icon" style="" viewBox="0 0 1024 1024" version="1.1" xmlns="http://www.w3.org/2000/svg" p-id="2629" xmlns:xlink="http://www.w3.org/1999/xlink" width="200" height="200"><defs><style type="text/css"></style></defs><path d="M166.81614 544.05043v4.604873l0.001023-3.201922zM166.81614 555.745785l0.001023-3.672643-0.001023-3.417839zM632.398505 109.288993c0.608867 0 1.723246 0 3.2756 0.002046l8.447385-0.002046h-11.722985z" p-id="2630" fill="#ffffff"></path><path d="M823.802622 109.304342c-49.779704 0-165.701761-0.01228-188.128517-0.014326-61.258118 0.002047-373.698771 0.014326-423.482567 0.014326-55.242107 0-45.30172 50.825521-45.30172 50.825522l-0.072655 385.322494 0.001023 3.201922-0.001023 3.417839 0.063445 207.75858-0.389879-0.081864v168.383843l111.196433-54.009024 69.89686 54.009024 84.190387-51.628816 83.397325 51.628816 84.190387-57.18741 69.89686 60.362726 89.139091-69.421023 110.219177 66.838201V801.512989c0.102331-0.354064 0.149403-0.543375 0.149402-0.543375l0.075725-256.919184 0.335644 11.698425-0.077771-395.615921c0.00307-0.00307 9.946526-50.828591-45.297627-50.828592z m-93.271197 522.406502h-15.351624l-7.672742-0.001023c-89.403103-0.002047-332.734841-0.01535-379.024051-0.017396h-23.020273c-14.128775 0-25.582629-11.453855-25.58263-25.58263 0-14.129798 11.453855-25.582629 25.58263-25.582629h23.024366c89.404127 0.002047 332.734841 0.01535 379.024051 0.017396l23.020273 0.001024c14.128775 0 25.582629 11.452832 25.58263 25.582629 0 14.127751-11.453855 25.582629-25.58263 25.582629z m0-147.356968h-15.351624-7.672742c-89.403103-0.002047-332.734841-0.01535-379.024051-0.017396h-23.020273c-14.128775 0-25.582629-11.453855-25.58263-25.58263s11.453855-25.582629 25.58263-25.582629h23.024366c89.404127 0.002047 332.734841 0.01535 379.024051 0.017396h23.020273c14.128775 0 25.582629 11.453855 25.58263 25.582629s-11.453855 25.582629-25.58263 25.58263z m0-147.355946h-15.351624-7.672742c-89.403103-0.002047-332.734841-0.01535-379.024051-0.017396h-23.020273c-14.128775 0-25.582629-11.453855-25.58263-25.582629s11.453855-25.582629 25.58263-25.58263h23.024366c89.404127 0.002047 332.734841 0.01535 379.024051 0.017397h23.020273c14.128775 0 25.582629 11.453855 25.58263 25.582629s-11.453855 25.582629-25.58263 25.582629z" p-id="2631" fill="#ffffff"></path></svg>