<?xml version="1.0" standalone="no"?><!DOCTYPE svg PUBLIC "-//W3C//DTD SVG 1.1//EN" "http://www.w3.org/Graphics/SVG/1.1/DTD/svg11.dtd"><svg t="1555466524925" class="icon" style="" viewBox="0 0 1024 1024" version="1.1" xmlns="http://www.w3.org/2000/svg" p-id="857" xmlns:xlink="http://www.w3.org/1999/xlink" width="200" height="200"><defs><style type="text/css"></style></defs><path d="M819.2 358.4c-16.384 0.512-29.184 14.336-29.184 30.72s12.8 30.208 29.184 30.72c16.384-0.512 29.184-14.336 29.184-30.72s-12.8-29.696-29.184-30.72zM665.6 757.76H358.4c-11.264-0.512-22.016 5.12-27.648 14.848-5.632 9.728-5.632 22.016 0 31.744 5.632 9.728 16.384 15.36 27.648 14.848h307.2c11.264 0.512 22.016-5.12 27.648-14.848 5.632-9.728 5.632-22.016 0-31.744-6.144-9.728-16.384-15.36-27.648-14.848zM358.4 696.32h307.2c8.192 0 15.872-3.072 22.016-8.704 5.632-5.632 8.704-13.824 8.704-22.016 0-8.192-3.072-15.872-8.704-21.504s-13.312-9.216-21.504-8.704H358.4c-11.264-0.512-22.016 5.12-27.648 14.848-5.632 9.728-5.632 22.016 0 31.744 5.632 9.216 16.384 14.848 27.648 14.336z" fill="#ffffff" p-id="858"></path><path d="M911.36 235.52h-122.88V112.64c0-16.384-6.656-31.744-18.432-43.52-11.264-11.264-27.136-17.92-43.008-17.92H296.96c-33.792 0-61.44 27.648-61.44 61.44v122.88H112.64c-32.768 0-59.392 25.6-61.44 57.856v314.88c2.048 32.256 28.672 57.856 61.44 57.856h92.16v245.76c0 33.792 27.136 61.44 60.928 61.44h491.52c33.792 0 61.44-27.648 61.44-61.44v-245.76h92.16c33.792 0 61.44-27.648 61.44-61.44V296.96c0.512-33.792-27.136-61.44-60.928-61.44zM296.96 143.36c0-8.192 3.072-15.872 8.704-21.504S319.488 112.64 327.68 112.64h368.64c8.192 0 15.872 3.072 22.016 8.704 5.632 5.632 9.216 13.824 9.216 22.016v92.16H296.96V143.36z m460.288 737.28c0 8.192-3.072 15.872-8.704 21.504s-13.824 9.216-22.016 9.216H296.96c-8.192 0-15.872-3.072-22.016-8.704-5.632-5.632-9.216-13.824-9.216-22.016v-307.2c0-16.896 13.824-30.72 31.232-30.72h430.08c16.896 0 30.72 13.824 30.72 30.72v307.2z m154.112-307.2c0 8.192-3.584 15.872-9.216 21.504s-13.312 9.216-21.504 9.216h-61.44v-61.44c0-16.384-6.656-31.744-17.92-43.52-11.776-11.264-27.136-17.92-43.52-17.92H266.24c-34.304 0-61.44 27.648-61.44 61.44v61.44H143.36c-16.896 0-30.72-13.824-30.72-30.72V327.68c0-16.896 13.824-30.72 30.72-30.72h737.28c16.896 0 30.72 13.824 30.72 30.72v245.76z" fill="#ffffff" p-id="859"></path></svg>